<?xml version="1.0" encoding="utf-8" ?>
<svg baseProfile="full" height="705" version="1.1" width="1304" xmlns="http://www.w3.org/2000/svg" xmlns:ev="http://www.w3.org/2001/xml-events" xmlns:xlink="http://www.w3.org/1999/xlink"><defs><linearGradient id="gradStar" x1="0%" x2="0%" y1="0%" y2="100%"><stop offset="0%" stop-color="#FF2ED2" /><stop offset="100%" stop-color="#D600A8" /></linearGradient></defs><polygon fill="url(#gradStar)" points="427.0,503.0 327.0,603.0 327.0,605.0 362.0,605.0 363.0,606.0 363.0,695.0 365.0,695.0 429.0,631.0 429.0,503.0" stroke="none" /><polygon fill="url(#gradStar)" points="580.0,4.0 580.0,255.0 579.0,256.0 401.0,78.0 399.0,78.0 386.0,91.0 386.0,92.0 344.0,134.0 344.0,135.0 338.0,141.0 338.0,144.0 353.0,159.0 353.0,160.0 455.0,262.0 455.0,263.0 513.0,321.0 512.0,322.0 262.0,322.0 262.0,412.0 515.0,412.0 516.0,413.0 516.0,542.0 518.0,542.0 581.0,479.0 581.0,324.0 582.0,323.0 737.0,323.0 739.0,321.0 740.0,321.0 842.0,219.0 843.0,219.0 917.0,145.0 917.0,143.0 914.0,140.0 913.0,140.0 870.0,97.0 869.0,97.0 852.0,80.0 849.0,80.0 789.0,140.0 789.0,141.0 686.0,244.0 686.0,245.0 672.0,259.0 671.0,258.0 671.0,4.0" stroke="none" /><polygon fill="#000000" points="429.0,412.0 429.0,692.0 516.0,692.0 516.0,412.0" stroke="none" /><polygon fill="#000000" points="175.0,412.0 175.0,693.0 176.0,694.0 363.0,694.0 364.0,693.0 364.0,606.0 363.0,605.0 263.0,605.0 262.0,604.0 262.0,412.0" stroke="none" /><polygon fill="#000000" points="581.0,323.0 581.0,693.0 670.0,693.0 670.0,552.0 671.0,551.0 825.0,551.0 825.0,474.0 671.0,474.0 670.0,473.0 670.0,411.0 671.0,410.0 967.0,410.0 968.0,411.0 968.0,693.0 1054.0,693.0 1054.0,411.0 1055.0,410.0 1198.0,410.0 1198.0,324.0 737.0,324.0 736.0,323.0" stroke="none" /></svg>