<?xml version="1.0" encoding="utf-8" ?>
<svg baseProfile="full" height="705" version="1.1" width="1304" xmlns="http://www.w3.org/2000/svg" xmlns:ev="http://www.w3.org/2001/xml-events" xmlns:xlink="http://www.w3.org/1999/xlink"><defs><linearGradient id="gradStar" x1="0%" x2="0%" y1="0%" y2="100%"><stop offset="0%" stop-color="#FF2ED2" /><stop offset="100%" stop-color="#D600A8" /></linearGradient></defs><polygon fill="url(#gradStar)" points="426.0,506.0 330.0,602.0 330.0,604.0 363.0,604.0 364.0,605.0 364.0,692.0 366.0,692.0 428.0,630.0 428.0,506.0" stroke="none" /><polygon fill="url(#gradStar)" points="581.0,5.0 581.0,258.0 580.0,259.0 401.0,80.0 399.0,80.0 387.0,92.0 387.0,93.0 345.0,135.0 345.0,136.0 340.0,141.0 340.0,144.0 354.0,158.0 354.0,159.0 456.0,261.0 456.0,262.0 516.0,322.0 515.0,323.0 263.0,323.0 263.0,411.0 516.0,411.0 517.0,412.0 517.0,539.0 519.0,539.0 580.0,478.0 580.0,323.0 581.0,322.0 736.0,322.0 738.0,320.0 739.0,320.0 841.0,218.0 842.0,218.0 915.0,145.0 915.0,143.0 913.0,141.0 912.0,141.0 869.0,98.0 868.0,98.0 852.0,82.0 849.0,82.0 790.0,141.0 790.0,142.0 687.0,245.0 687.0,246.0 671.0,262.0 670.0,261.0 670.0,5.0" stroke="none" /><polygon fill="#000000" points="429.0,412.0 429.0,692.0 516.0,692.0 516.0,412.0" stroke="none" /><polygon fill="#000000" points="175.0,412.0 175.0,693.0 176.0,694.0 363.0,694.0 364.0,693.0 364.0,606.0 363.0,605.0 263.0,605.0 262.0,604.0 262.0,412.0" stroke="none" /><polygon fill="#000000" points="581.0,323.0 581.0,693.0 670.0,693.0 670.0,552.0 671.0,551.0 825.0,551.0 825.0,474.0 671.0,474.0 670.0,473.0 670.0,411.0 671.0,410.0 967.0,410.0 968.0,411.0 968.0,693.0 1054.0,693.0 1054.0,411.0 1055.0,410.0 1198.0,410.0 1198.0,324.0 737.0,324.0 736.0,323.0" stroke="none" /></svg>